<?xml version="1.0" encoding="UTF-8" standalone="no"?><!DOCTYPE svg PUBLIC "-//W3C//DTD SVG 1.1//EN" "http://www.w3.org/Graphics/SVG/1.1/DTD/svg11.dtd"><svg width="100%" height="100%" viewBox="0 0 787 783" version="1.1" xmlns="http://www.w3.org/2000/svg" xmlns:xlink="http://www.w3.org/1999/xlink" xml:space="preserve" xmlns:serif="http://www.serif.com/" style="fill-rule:evenodd;clip-rule:evenodd;stroke-linejoin:round;stroke-miterlimit:2;"><rect id="Artboard1" x="0" y="0" width="786.09" height="782.001" style="fill:none;"/><clipPath id="_clip1"><rect x="0" y="0" width="786.09" height="782.001"/></clipPath><g clip-path="url(#_clip1)"><g id="Layer-1" serif:id="Layer 1"><circle cx="563.771" cy="560.68" r="222.32" style="fill:#fff;"/><path d="M574,173l-0,572.441l-543,-0l-0,-698.441l436.053,0l106.947,126Z" style="fill:#fff;"/><path d="M444.088,170.141c-12.638,-0 -22.917,-10.284 -22.917,-22.917l0,-92.058l4.796,-0c11.967,-0 38.163,14.133 65.079,41.137c26.975,27.071 41.288,53.613 41.479,65.842c0.038,2.579 0.08,5.246 0.117,7.996l-88.554,-0Zm142.596,-8.846c-0.988,-62.921 -98.617,-160.296 -160.717,-160.296l-348.883,0c-42.504,0 -77.084,34.579 -77.084,77.083l0,616.667c0,42.504 34.58,77.083 77.084,77.083l409.666,0c-29.104,-11.158 -55.804,-28.508 -78.233,-51.3c-0.917,-0.937 -1.771,-1.916 -2.671,-2.866l-328.762,-0c-12.634,-0 -22.917,-10.284 -22.917,-22.917l0,-616.667c0,-12.633 10.283,-22.916 22.917,-22.916l289.921,-0l-0,92.058c-0,42.504 34.579,77.083 77.083,77.083l89.058,0c0.213,33.867 0.313,73.121 0.338,114.288c10.3,-1.483 20.762,-2.267 31.346,-2.267c7.675,0 15.287,0.413 22.82,1.196c-0.05,-69.971 -0.312,-134.521 -0.966,-176.229" style="fill:#1f4380;fill-rule:nonzero;"/><path d="M349.94,613.5l-215.566,0c-12.654,0 -22.917,10.263 -22.917,22.917c0,12.654 10.263,22.916 22.917,22.916l231.525,0c-6.984,-14.758 -12.317,-30.125 -15.959,-45.833" style="fill:#86b8e3;fill-rule:nonzero;"/><path d="M399.542,412.113l-265.167,-0c-12.654,-0 -22.916,10.262 -22.916,22.916c-0,12.654 10.262,22.917 22.916,22.917l234.238,-0c8.237,-16.233 18.554,-31.642 30.929,-45.833" style="fill:#86b8e3;fill-rule:nonzero;"/><path d="M349.208,512.804l-214.834,0c-12.654,0 -22.917,10.263 -22.917,22.917c0,12.654 10.263,22.917 22.917,22.917l209.654,-0c0.188,-15.384 1.925,-30.742 5.179,-45.834" style="fill:#86b8e3;fill-rule:nonzero;"/><path d="M252.158,349.612l-84.809,0c-22.917,0 -41.667,-18.75 -41.667,-41.667l0,-156.862c0,-22.917 18.75,-41.667 41.667,-41.667l84.808,0c22.917,0 41.667,18.75 41.667,41.667l0,156.862c0,22.917 -18.75,41.667 -41.667,41.667" style="fill:#86b8e3;fill-rule:nonzero;"/><path d="M683.673,530.266c-4.441,12.662 -12.216,22.942 -23.32,30.833c-11.105,7.892 -23.317,11.838 -36.642,11.838c-17.483,-0 -32.442,-6.217 -44.867,-18.642c-12.429,-12.429 -18.641,-27.383 -18.641,-44.867c-0,-17.483 6.212,-32.441 18.641,-44.866c12.425,-12.429 27.384,-18.642 44.867,-18.642c5.479,0 11.221,0.779 17.221,2.338c6.004,1.562 11.083,3.758 15.241,6.591c1.513,1.042 2.267,2.363 2.267,3.971c0,1.608 -0.754,2.929 -2.267,3.971l-41.537,23.954l-0,31.754l27.358,15.171c0.475,-0.283 4.209,-2.579 11.2,-6.875c6.996,-4.3 13.396,-8.129 19.209,-11.483c5.812,-3.359 9.145,-5.034 9.995,-5.034c1.417,0 2.53,0.471 3.33,1.417c0.804,0.946 1.204,2.125 1.204,3.546c-0,3.683 -1.084,8.691 -3.259,15.025m-183.291,143.317c-3.5,3.5 -7.75,5.245 -12.759,5.245c-4.916,0 -9.216,-1.745 -12.9,-5.245l-15.029,-15.309c-3.591,-3.404 -5.387,-7.654 -5.387,-12.758c-0,-5.009 1.796,-9.308 5.387,-12.9l96.538,-96.538c3.687,9.263 9.096,17.459 16.233,24.596c7.133,7.133 15.333,12.546 24.596,16.229l-96.679,96.679Zm191.787,-243.475c-34.275,-34.95 -79.846,-54.195 -128.329,-54.187c-48.479,0 -94.05,19.242 -128.308,54.196c-70.654,72.004 -70.654,189.162 -0,261.171c31.833,32.35 74.104,51.441 119.041,53.762c-0.487,-0.037 3.85,0.392 9.2,0.392c5.334,-0 9.65,-0.413 9.65,-0.413c44.525,-2.246 86.855,-21.341 118.721,-53.725c70.471,-72.187 70.471,-189.346 0.025,-261.196" style="fill:#1f4380;fill-rule:nonzero;"/><path d="M496.694,627.371c-2.459,-0 -4.584,0.896 -6.379,2.692c-1.796,1.795 -2.692,3.924 -2.692,6.379c-0,2.458 0.896,4.583 2.692,6.379c1.795,1.796 3.92,2.696 6.379,2.696c2.458,-0 4.583,-0.9 6.379,-2.696c1.796,-1.796 2.692,-3.921 2.692,-6.379c-0,-2.455 -0.896,-4.584 -2.692,-6.38c-1.796,-1.795 -3.921,-2.691 -6.379,-2.691" style="fill:#1f4380;fill-rule:nonzero;"/></g></g></svg>